<mxfile host="app.diagrams.net" modified="2022-02-01T04:38:14.419Z" agent="5.0 (Windows NT 10.0; Win64; x64) AppleWebKit/537.36 (KHTML, like Gecko) Chrome/97.0.4692.99 Safari/537.36" etag="02fYcIeIujKYF18tt7R5" version="15.7.0" type="github">
  <diagram id="elU5cZA6UFUA3a2ilxMb" name="Page-1">
    <mxGraphModel dx="1209" dy="733" grid="1" gridSize="10" guides="1" tooltips="1" connect="1" arrows="1" fold="1" page="1" pageScale="1" pageWidth="850" pageHeight="1100" math="0" shadow="0">
      <root>
        <mxCell id="0" />
        <mxCell id="1" parent="0" />
        <mxCell id="Wi02O_qCFIIUGWHRC40P-6" value="" style="group" vertex="1" connectable="0" parent="1">
          <mxGeometry x="16" y="240" width="195" height="200" as="geometry" />
        </mxCell>
        <mxCell id="Wi02O_qCFIIUGWHRC40P-1" value="" style="rounded=1;whiteSpace=wrap;html=1;" vertex="1" parent="Wi02O_qCFIIUGWHRC40P-6">
          <mxGeometry width="195" height="200" as="geometry" />
        </mxCell>
        <mxCell id="Wi02O_qCFIIUGWHRC40P-2" value="&lt;font style=&quot;font-size: 16px&quot;&gt;LDM API&lt;/font&gt;" style="rounded=1;whiteSpace=wrap;html=1;" vertex="1" parent="Wi02O_qCFIIUGWHRC40P-6">
          <mxGeometry x="64" y="11.428571428571427" width="120" height="57.14285714285714" as="geometry" />
        </mxCell>
        <mxCell id="Wi02O_qCFIIUGWHRC40P-3" value="&lt;font style=&quot;font-size: 16px&quot;&gt;FDA API&lt;/font&gt;" style="rounded=1;whiteSpace=wrap;html=1;" vertex="1" parent="Wi02O_qCFIIUGWHRC40P-6">
          <mxGeometry x="44" y="49.52380952380952" width="120" height="57.14285714285714" as="geometry" />
        </mxCell>
        <mxCell id="Wi02O_qCFIIUGWHRC40P-4" value="&lt;span style=&quot;font-size: 16px&quot;&gt;----&lt;/span&gt;" style="rounded=1;whiteSpace=wrap;html=1;" vertex="1" parent="Wi02O_qCFIIUGWHRC40P-6">
          <mxGeometry x="24" y="87.61904761904762" width="120" height="57.14285714285714" as="geometry" />
        </mxCell>
        <mxCell id="Wi02O_qCFIIUGWHRC40P-5" value="&lt;span style=&quot;font-size: 16px&quot;&gt;GGI API&lt;/span&gt;" style="rounded=1;whiteSpace=wrap;html=1;" vertex="1" parent="Wi02O_qCFIIUGWHRC40P-6">
          <mxGeometry x="9" y="125.71428571428571" width="120" height="57.14285714285714" as="geometry" />
        </mxCell>
        <mxCell id="Wi02O_qCFIIUGWHRC40P-7" value="&lt;b&gt;Map marker service&lt;br&gt;(GRPC)&lt;/b&gt;" style="rounded=1;whiteSpace=wrap;html=1;fontSize=16;strokeWidth=2;strokeColor=#00FF00;" vertex="1" parent="1">
          <mxGeometry x="350" y="320" width="180" height="70" as="geometry" />
        </mxCell>
        <mxCell id="Wi02O_qCFIIUGWHRC40P-8" value="MarkerDB" style="shape=cylinder3;whiteSpace=wrap;html=1;boundedLbl=1;backgroundOutline=1;size=15;fontSize=16;strokeColor=default;strokeWidth=1;" vertex="1" parent="1">
          <mxGeometry x="680" y="240" width="120" height="200" as="geometry" />
        </mxCell>
        <mxCell id="Wi02O_qCFIIUGWHRC40P-9" value="Marker Images" style="ellipse;shape=cloud;whiteSpace=wrap;html=1;fontSize=16;strokeColor=default;strokeWidth=1;" vertex="1" parent="1">
          <mxGeometry x="333" y="110" width="210" height="110" as="geometry" />
        </mxCell>
        <mxCell id="Wi02O_qCFIIUGWHRC40P-10" value="" style="endArrow=classic;html=1;rounded=0;fontSize=16;entryX=-0.014;entryY=0.149;entryDx=0;entryDy=0;entryPerimeter=0;" edge="1" parent="1">
          <mxGeometry width="50" height="50" relative="1" as="geometry">
            <mxPoint x="211" y="338" as="sourcePoint" />
            <mxPoint x="347.48" y="338.43000000000006" as="targetPoint" />
          </mxGeometry>
        </mxCell>
        <mxCell id="Wi02O_qCFIIUGWHRC40P-11" value="" style="endArrow=classic;html=1;rounded=0;fontSize=16;exitX=0;exitY=0.75;exitDx=0;exitDy=0;" edge="1" parent="1" source="Wi02O_qCFIIUGWHRC40P-7">
          <mxGeometry width="50" height="50" relative="1" as="geometry">
            <mxPoint x="290" y="390" as="sourcePoint" />
            <mxPoint x="210" y="373" as="targetPoint" />
          </mxGeometry>
        </mxCell>
        <mxCell id="Wi02O_qCFIIUGWHRC40P-12" value="" style="shape=flexArrow;endArrow=classic;startArrow=classic;html=1;rounded=0;fontSize=16;entryX=0.505;entryY=0.962;entryDx=0;entryDy=0;entryPerimeter=0;exitX=0.5;exitY=0;exitDx=0;exitDy=0;" edge="1" parent="1" source="Wi02O_qCFIIUGWHRC40P-7" target="Wi02O_qCFIIUGWHRC40P-9">
          <mxGeometry width="100" height="100" relative="1" as="geometry">
            <mxPoint x="400" y="310" as="sourcePoint" />
            <mxPoint x="490" y="230" as="targetPoint" />
          </mxGeometry>
        </mxCell>
        <mxCell id="Wi02O_qCFIIUGWHRC40P-13" value="" style="shape=flexArrow;endArrow=classic;startArrow=classic;html=1;rounded=0;fontSize=16;exitX=1;exitY=0.5;exitDx=0;exitDy=0;entryX=-0.001;entryY=0.577;entryDx=0;entryDy=0;entryPerimeter=0;" edge="1" parent="1" source="Wi02O_qCFIIUGWHRC40P-7" target="Wi02O_qCFIIUGWHRC40P-8">
          <mxGeometry width="100" height="100" relative="1" as="geometry">
            <mxPoint x="580" y="450" as="sourcePoint" />
            <mxPoint x="680" y="350" as="targetPoint" />
          </mxGeometry>
        </mxCell>
      </root>
    </mxGraphModel>
  </diagram>
</mxfile>
